<?xml version="1.0" encoding="utf-8"?>
<!DOCTYPE svg PUBLIC "-//W3C//DTD SVG 1.0//EN" "http://www.w3.org/TR/2001/REC-SVG-20010904/DTD/svg10.dtd">
<svg version="1.0" xmlns="http://www.w3.org/2000/svg" width="1024px" height="572px" viewBox="0 0 1024 572" preserveAspectRatio="xMidYMid meet">
 <g fill="#f7f6f2">
  <path d="M0 285.77 l0 -285.77 512 0 512 0 0 285.77 0 285.77 -512 0 -512 0 0 -285.77z m545.12 171.09 c-2.98 -2.60 -4.39 -6.70 -3.94 -11.61 0.15 -1.79 0.07 -3.20 -0.15 -3.20 -1.04 0 -5.58 3.87 -6.40 5.36 -1.04 2.01 -0.67 3.27 1.86 6.10 1.86 2.08 8.41 5.66 10.34 5.66 0.52 0 -0.22 -1.04 -1.71 -2.31z m42.12 -10.72 c3.13 -6.77 0.45 -12.35 -7.74 -16 -2.83 -1.27 -6.40 -1.79 -18.01 -2.53 -16.60 -1.12 -17.49 -1.49 -17.49 -6.62 l0 -3.05 -2.31 2.23 c-1.27 1.19 -2.83 3.27 -3.35 4.61 -0.97 2.08 -0.89 2.68 0.07 4.54 0.60 1.19 2.23 2.90 3.65 3.72 1.41 0.89 2.68 1.93 2.83 2.23 0.15 0.37 6.62 1.04 14.36 1.49 16.37 1.04 19.05 1.64 21.21 4.39 1.41 1.71 1.56 2.75 1.34 7 l-0.30 5.06 2.16 -2.08 c1.19 -1.12 2.83 -3.35 3.57 -4.99z m-69.13 -12.80 l3.20 -1.27 -3.65 -0.60 c-2.01 -0.30 -4.17 -0.97 -4.76 -1.56 -1.93 -1.93 -2.38 -7.22 -2.31 -28.43 0 -11.46 0 -24.48 -0.07 -29.02 l0 -8.19 -1.79 3.72 c-2.08 4.47 -6.77 9.30 -11.09 11.46 -2.75 1.41 -2.90 1.56 -1.19 1.56 1.12 0 2.23 0.52 2.46 1.19 0.22 0.67 0.45 10.27 0.45 21.36 0 18.01 0.15 20.54 1.41 23.22 3.13 6.85 10.12 9.45 17.34 6.55z m109.32 -0.74 l4.02 -2.08 -4.99 -0.37 c-4.24 -0.30 -5.36 -0.67 -7.07 -2.46 l-2.08 -2.01 -0.22 -23.14 c-0.22 -21.43 -0.30 -23.07 -1.49 -22.55 -1.19 0.52 -7.96 1.56 -10.79 1.71 -1.12 0.07 -1.19 0.30 -0.37 1.79 0.60 1.12 1.04 7.59 1.34 20.99 0.45 21.43 0.74 23.14 5.51 26.79 5.21 3.94 10.05 4.39 16.15 1.34z m-318.66 -0.82 c-3.80 -2.46 -7.07 -6.25 -9.97 -11.68 l-1.93 -3.72 0.52 6.70 c0.30 3.72 0.52 6.77 0.60 6.85 0.15 0.22 12.65 3.87 13.40 3.87 0.45 0.07 -0.74 -0.89 -2.60 -2.01z m339.42 1.34 c7.44 -1.64 6.85 -1.34 5.51 -3.35 -0.97 -1.49 -1.19 -5.66 -1.56 -25.67 l-0.45 -23.96 -4.54 0.52 c-8.26 0.89 -8.71 1.04 -7.67 2.90 1.34 2.38 1.27 39.96 -0.15 41.60 -0.89 1.12 -0.82 1.27 0.52 1.27 1.56 0 2.38 1.79 2.38 5.43 0 2.23 0.67 2.38 5.95 1.27z m-269.84 -1.27 c-0.89 -2.16 -1.34 -38.55 -0.45 -41.15 0.60 -1.64 0.60 -2.23 0 -2.23 -0.60 0 -0.67 -5.13 -0.37 -18.08 l0.45 -18.08 -7.07 1.56 c-5.66 1.19 -6.92 1.71 -6.55 2.60 1.34 2.98 1.64 13.32 1.34 41.30 -0.22 16.82 -0.52 31.63 -0.67 32.97 l-0.30 2.38 7.14 0 c6.47 0 7 -0.15 6.47 -1.27z m36.09 0 c-0.82 -0.89 -1.12 -5.80 -1.41 -21.36 -0.45 -22.40 -0.67 -23.59 -5.43 -27.76 -4.09 -3.57 -7.59 -4.39 -12.50 -2.98 -2.23 0.67 -4.69 1.71 -5.51 2.31 -1.41 1.04 -1.19 1.12 3.13 1.19 4.17 0 4.76 0.22 6.40 2.23 1.41 1.64 2.01 3.50 2.38 6.92 0.67 6.03 0.07 37.66 -0.67 39.44 -0.52 1.19 0 1.27 7 1.27 7 0 7.52 -0.07 6.62 -1.27z m31.26 -1.34 c-2.53 -4.24 -3.72 -9.90 -4.17 -19.72 -0.52 -11.39 0.60 -20.54 3.13 -25.67 0.97 -2.01 1.64 -3.80 1.49 -3.94 -0.60 -0.60 -7.81 4.47 -10.12 7.14 -3.05 3.50 -5.66 9.23 -6.70 14.73 -1.41 7.59 1.56 17.56 7 23.22 2.16 2.31 9.08 6.85 10.34 6.85 0.30 0 -0.15 -1.19 -0.97 -2.60z m30.07 -4.84 c11.98 -13.32 8.04 -35.57 -7.59 -43.53 -4.69 -2.31 -5.28 -2.31 -3.13 -0.07 3.05 3.20 4.61 10.20 5.06 22.03 0.45 12.35 -0.45 20.24 -2.98 25.45 l-1.71 3.42 3.50 -1.71 c1.86 -0.97 4.99 -3.50 6.85 -5.58z m211.13 5.95 c-0.52 -1.04 -0.74 -8.48 -0.60 -22.33 0.15 -11.46 0 -20.84 -0.30 -20.84 -0.37 0 -0.60 -1.86 -0.60 -4.17 l0 -4.24 -2.98 0.52 c-1.64 0.22 -4.61 0.82 -6.62 1.27 l-3.65 0.74 1.04 2.01 c0.82 1.56 1.04 6.55 1.04 23.81 0 13.62 -0.30 22.40 -0.74 23.29 -0.74 1.34 -0.45 1.41 6.70 1.41 7.29 0 7.44 -0.07 6.70 -1.49z m35.72 -0.45 c-0.45 -1.04 -0.74 -9.53 -0.74 -18.83 0 -18.46 -0.74 -23.67 -4.09 -28.06 -3.80 -4.99 -11.91 -6.25 -18.23 -2.90 l-3.35 1.79 4.09 0.07 c4.84 0 7.14 1.34 8.63 4.91 1.27 2.98 1.49 39.89 0.30 43.01 l-0.74 1.93 7.44 0 7.44 0 -0.74 -1.93z m-383.40 -1.49 c9.15 -6.10 12.28 -17.41 7.22 -25.97 -2.98 -5.13 -7.37 -8.26 -20.09 -14.59 -12.95 -6.33 -17.12 -9.30 -18.68 -13.02 -1.41 -3.42 -1.34 -11.68 0.15 -14.51 0.60 -1.27 1.04 -2.46 0.82 -2.60 -0.15 -0.15 -1.79 1.04 -3.72 2.68 -6.92 6.10 -9 14.44 -5.43 22.03 2.68 5.80 8.11 9.97 20.91 16.22 11.68 5.66 15.40 8.19 17.04 11.53 2.75 5.36 1.93 15.18 -1.49 18.90 -2.53 2.75 -1.41 2.53 3.27 -0.67z m213.43 -18.08 c-2.53 -2.75 -3.35 -6.85 -3.35 -16.07 -0.07 -7.22 0.22 -9.53 1.34 -12.06 l1.49 -3.13 -2.01 0.74 c-7.14 2.75 -12.50 10.12 -11.91 16.45 0.45 4.39 3.27 8.78 7.29 11.46 1.64 1.12 2.98 2.46 2.98 2.98 0 0.67 0.89 1.04 2.75 1.04 2.60 0 2.68 -0.07 1.41 -1.41z m20.91 -1.56 c8.71 -4.99 11.31 -13.62 6.47 -20.99 -0.97 -1.56 -1.79 -3.65 -1.79 -4.69 0 -1.64 -0.30 -1.86 -2.75 -1.86 -1.56 -0.07 -3.65 -0.52 -4.69 -1.12 -2.83 -1.64 -2.90 -1.41 -1.19 2.08 1.34 2.75 1.56 4.39 1.56 13.17 0 8.19 -0.22 10.49 -1.34 12.43 -2.16 4.02 -1.71 4.09 3.72 0.97z m-49.79 -29.54 c-1.19 -0.15 -2.98 -0.15 -4.09 0 -1.19 0.15 -0.22 0.30 2.01 0.30 2.23 0 3.20 -0.15 2.08 -0.30z m66.38 -2.08 c0 -3.27 -1.19 -3.35 -5.88 -0.52 l-3.42 2.01 3.72 0.45 c2.08 0.22 4.17 0.52 4.69 0.52 0.52 0.07 0.89 -0.82 0.89 -2.46z m-246.62 -18.60 c-0.15 -0.52 -1.93 -1.34 -3.94 -1.79 -1.93 -0.52 -4.24 -1.12 -5.06 -1.34 -0.89 -0.22 -0.07 0.82 1.93 2.60 1.86 1.64 4.17 4.54 5.21 6.47 l1.79 3.35 0.22 -4.17 c0.15 -2.31 0.07 -4.61 -0.15 -5.13z m120.86 -39.74 c22.70 -5.06 44.13 -19.80 56.93 -39.07 3.80 -5.80 8.93 -15.26 8.41 -15.70 -0.22 -0.15 -25.45 3.05 -29.25 3.80 -1.56 0.30 -3.20 1.64 -5.21 4.17 -6.33 8.11 -19.80 16.37 -31.55 19.27 -5.36 1.34 -7.81 1.49 -18.23 1.27 -11.16 -0.30 -12.43 -0.45 -19.20 -2.75 -22.25 -7.59 -38.47 -27.24 -42.72 -51.72 -1.56 -8.86 -1.04 -23.59 1.19 -32.07 5.06 -19.65 19.57 -36.61 37.36 -43.76 14.66 -5.88 34.53 -5.51 48.67 0.97 8.78 3.94 16.37 9.90 22.70 17.71 2.53 3.20 4.54 5.06 4.69 4.47 3.42 -10.27 5.51 -16 7.59 -20.54 1.41 -3.05 2.53 -5.95 2.53 -6.55 0 -1.19 -10.57 -10.42 -16.15 -14.14 -6.70 -4.47 -18.75 -9.75 -27.01 -11.98 -7.07 -1.86 -9 -2.01 -19.72 -2.01 -13.25 0.07 -20.39 1.49 -31.85 6.25 -29.02 12.06 -50.90 40.56 -56.78 73.82 -3.94 22.70 2.08 48.22 16.30 69.06 5.36 7.81 18.16 20.47 25.90 25.53 21.06 13.92 43.83 18.75 65.41 13.99z m137.30 -25 c35.20 -8.11 61.32 -39.44 65.27 -78.21 0.74 -7.07 0.67 -9.67 -0.37 -17.27 -5.06 -36.24 -29.10 -64.82 -61.92 -73.53 -9.90 -2.68 -23.52 -2.83 -33.12 -0.45 -27.83 6.85 -50.38 27.83 -59.91 55.89 -1.04 3.05 -1.86 5.66 -1.86 5.73 0 0.07 3.94 0.30 8.78 0.45 8.78 0.22 8.86 0.22 12.95 2.98 l4.17 2.75 2.31 -6.47 c5.80 -16.30 19.27 -29.10 35.13 -33.34 6.47 -1.71 20.84 -1.79 27.46 -0.07 5.73 1.49 13.84 5.43 18.75 9.08 4.61 3.42 11.01 11.24 14.21 17.41 9.45 18.01 9.15 43.09 -0.67 61.92 -6.47 12.35 -19.42 22.92 -32.82 26.64 -5.51 1.56 -7.14 1.71 -16.37 1.34 -11.46 -0.45 -16.67 -1.56 -24.19 -5.36 -4.84 -2.38 -5.21 -2.38 -10.42 -1.79 -2.98 0.30 -5.66 0.60 -5.95 0.67 -0.22 0 -1.04 1.79 -1.71 3.94 -0.74 2.08 -2.31 5.80 -3.57 8.11 l-2.23 4.32 1.79 1.41 c0.97 0.82 4.84 3.13 8.48 5.21 18.01 9.90 37.36 12.95 55.81 8.63z m-136.86 -20.17 c3.42 -1.64 6.85 -5.66 7.44 -8.86 0.82 -4.47 -0.30 -7.67 -3.80 -11.16 -5.36 -5.36 -11.24 -5.21 -16.22 0.30 -3.80 4.17 -4.69 7.59 -3.20 11.61 1.41 3.72 4.32 6.85 7.52 8.26 2.98 1.34 5.21 1.27 8.26 -0.15z m-25.67 -15.18 c0.97 -11.01 8.04 -17.79 19.35 -18.46 6.92 -0.37 12.50 1.04 16.45 4.32 2.98 2.46 7.29 10.27 7.29 13.25 0 1.79 0.07 1.86 4.32 1.41 2.31 -0.22 10.64 -1.27 18.38 -2.38 21.21 -2.90 52.69 -7.07 53.66 -7.07 0.52 0 0.97 -2.23 1.19 -5.73 0.37 -6.62 2.08 -10.64 6.25 -14.66 3.65 -3.50 8.11 -4.91 15.85 -4.91 5.21 0 7.14 0.37 10.27 1.79 4.47 2.08 8.63 7.22 9.90 12.20 0.37 1.71 1.12 3.13 1.49 3.13 0.37 0 1.41 -0.97 2.31 -2.16 1.19 -1.56 2.46 -2.31 4.84 -2.68 4.02 -0.60 4.91 -1.71 1.79 -2.38 -2.31 -0.45 -2.38 -0.45 -2.08 -4.24 0.22 -2.08 0.82 -5.36 1.34 -7.29 0.97 -3.35 0.97 -3.72 -0.52 -5.58 -2.38 -3.20 -3.65 -3.05 -3.35 0.37 l0.30 2.90 -12.95 0.89 c-7.07 0.52 -20.76 1.93 -30.36 3.13 -9.60 1.19 -22.70 2.83 -29.02 3.65 -15.55 2.01 -14.88 2.01 -14.88 -1.12 0 -3.57 1.49 -4.24 13.40 -6.55 20.47 -3.94 35.42 -6.10 47.63 -6.77 2.68 -0.15 -3.05 -0.07 -12.65 0.15 -25.38 0.67 -24.26 0.67 -25.82 -0.82 -2.01 -1.79 -2.46 -1.64 -2.46 0.97 0 1.27 -0.15 2.23 -0.30 2.23 -0.22 0 -10.49 1.34 -22.92 3.05 -12.43 1.64 -23.67 2.90 -24.93 2.75 -1.34 -0.15 -2.53 -0.07 -2.60 0.22 -0.30 0.74 -18.46 2.90 -24.26 2.90 -5.43 0 -6.47 -1.19 -5.88 -6.62 0.30 -2.90 0.89 -3.87 3.72 -6.47 5.28 -4.76 14.44 -9.23 18.98 -9.23 2.98 0 3.87 0.30 4.09 1.34 0.22 0.82 0.37 0.52 0.45 -0.74 0 -1.12 0.37 -2.16 0.67 -2.38 1.12 -0.67 18.90 -3.50 26.20 -4.17 l7.07 -0.67 -8.56 0.30 c-16.67 0.52 -37.28 5.58 -46.88 11.46 -2.46 1.49 -8.19 6.18 -12.73 10.49 -4.61 4.32 -9.38 8.56 -10.64 9.53 -1.19 0.89 -2.08 1.64 -1.86 1.64 0.22 0 3.50 -0.74 7.37 -1.64 5.21 -1.19 9.67 -1.64 16.74 -1.64 8.78 -0.07 10.05 0.07 13.25 1.71 4.09 2.01 6.47 5.21 6.47 8.86 0 2.16 -0.22 2.38 -2.23 2.38 -1.27 0 -4.02 -0.97 -6.18 -2.16 -7.29 -4.09 -10.34 -3.94 -36.69 1.86 -8.26 1.79 -15.70 3.27 -16.60 3.27 -1.27 0 -1.56 -0.45 -1.56 -2.46 0 -1.34 0.45 -2.90 0.97 -3.42 0.82 -0.89 -5.36 1.27 -8.93 3.05 -2.46 1.27 -2.53 2.38 -0.60 7.67 2.38 6.25 2.46 10.27 0.22 11.83 -1.64 1.19 -1.56 1.19 1.49 1.19 1.79 0 4.24 0.52 5.51 1.19 2.46 1.27 10.72 2.46 15.85 2.23 l2.98 -0.07 0.45 -4.84z m148.69 -2.75 c1.49 -1.19 3.42 -3.72 4.39 -5.58 1.56 -3.05 1.64 -3.80 0.89 -6.70 -0.60 -2.16 -1.93 -4.24 -4.17 -6.33 -4.17 -4.09 -7.22 -4.69 -11.91 -2.46 -7.52 3.65 -9.90 12.35 -5.06 18.38 4.76 5.80 10.57 6.85 15.85 2.68z"/>
  <path d="M438.33 312.04 c-2.75 -0.52 -3.72 -1.64 -3.72 -4.32 0 -3.80 1.04 -4.17 11.61 -3.94 l9.60 0.22 0.22 3.35 c0.37 4.61 -0.74 5.21 -9.08 5.13 -3.72 -0.07 -7.59 -0.30 -8.63 -0.45z"/>
  <path d="M463.70 308.54 c-0.52 -0.60 -0.82 -2.38 -0.67 -3.87 l0.22 -2.83 6.70 -2.53 c4.69 -1.71 7.67 -2.38 10.05 -2.23 3.35 0.22 3.35 0.22 3.57 3.27 0.30 3.80 -0.74 4.76 -7.89 7.29 -6.03 2.16 -10.64 2.46 -11.98 0.89z"/>
  <path d="M417.27 306.98 c-2.75 -0.97 -6.03 -2.53 -7.29 -3.42 -1.93 -1.34 -2.23 -1.93 -2.01 -4.69 l0.22 -3.05 4.47 0.07 c4.17 0 12.28 2.68 15.11 4.91 1.12 0.97 1.19 5.95 0 7.14 -1.34 1.34 -4.91 1.04 -10.49 -0.97z"/>
  <path d="M488.63 295.74 c-1.34 -3.57 -0.52 -5.43 4.99 -10.64 5.06 -4.99 5.58 -5.28 8.78 -5.28 3.80 0 4.39 0.60 4.39 4.69 0 2.01 -0.89 3.20 -5.28 7.37 -5.06 4.76 -5.51 5.06 -8.86 5.06 -2.53 0 -3.72 -0.30 -4.02 -1.19z"/>
  <path d="M391.07 290.16 c-4.61 -4.39 -4.84 -4.76 -4.84 -8.19 0 -3.80 0.60 -4.39 4.54 -4.39 1.64 0 3.35 1.19 7.37 5.13 5.13 4.99 5.28 5.21 5.06 8.41 l-0.22 3.20 -3.57 0.22 c-3.42 0.22 -3.65 0.07 -8.33 -4.39z"/>
  <path d="M375.96 270.59 c-3.05 -5.13 -4.61 -9.60 -4.61 -13.17 l0 -3.65 3.72 0 3.72 0 3.35 6.77 c2.60 5.06 3.35 7.44 3.20 9.45 -0.22 2.75 -0.22 2.75 -4.02 2.98 -3.65 0.22 -3.87 0.07 -5.36 -2.38z"/>
  <path d="M366.21 242.83 c-1.04 -4.09 -1.79 -13.99 -1.27 -16.22 0.45 -1.79 0.74 -1.93 4.39 -1.71 l3.87 0.22 0.97 9.15 c0.52 5.06 0.82 9.67 0.60 10.27 -0.30 0.67 -1.56 1.04 -4.09 1.04 -3.72 0 -3.72 0 -4.47 -2.75z"/>
  <path d="M366.36 216.11 c-0.74 -2.01 0.30 -11.68 1.71 -15.93 l1.41 -4.09 3.72 0 c3.65 0 3.72 0.07 3.94 2.46 0.30 2.68 -2.60 16.37 -3.80 17.86 -1.04 1.34 -6.40 1.19 -7 -0.30z"/>
  <path d="M376.33 188.50 c-0.30 -0.22 -0.52 -1.86 -0.52 -3.50 0 -3.42 1.86 -7.44 5.73 -12.20 2.38 -2.98 2.83 -3.20 5.73 -2.98 l3.05 0.22 0.22 3.57 c0.22 3.13 -0.15 4.24 -2.31 7.44 -1.41 2.16 -3.13 4.76 -3.80 5.95 -1.04 1.71 -1.71 2.01 -4.47 2.01 -1.71 0 -3.42 -0.22 -3.65 -0.52z"/>
  <path d="M394.94 166.18 c-0.30 -0.22 -0.52 -1.86 -0.52 -3.65 0 -2.68 0.37 -3.50 2.83 -5.66 4.99 -4.54 7.89 -5.88 11.83 -5.66 l3.57 0.22 0.22 3.13 c0.22 3.05 0.22 3.13 -5.80 7.59 -4.91 3.72 -6.55 4.54 -8.86 4.54 -1.56 0 -3.05 -0.22 -3.27 -0.52z"/>
  <path d="M481.34 160.89 l-6.47 -4.24 -0.07 -3.50 0 -3.57 3.94 0 c3.13 0 4.69 0.45 7.67 2.31 6.25 3.94 7.74 5.73 7.74 9.30 0 5.58 -4.02 5.51 -12.80 -0.30z"/>
  <path d="M419.50 152.04 c-0.30 -0.22 -0.52 -1.93 -0.52 -3.65 0 -2.31 0.37 -3.42 1.34 -3.87 2.08 -1.19 13.84 -3.27 16.60 -2.98 2.46 0.22 2.53 0.30 2.75 4.02 l0.22 3.80 -6.92 1.64 c-6.85 1.56 -12.58 2.01 -13.47 1.04z"/>
  <path d="M454.55 150.40 c-3.20 -0.67 -6.10 -1.56 -6.55 -2.01 -0.45 -0.45 -0.74 -2.16 -0.60 -3.72 l0.22 -2.90 4.84 -0.22 c2.60 -0.15 7.22 0.30 10.27 0.97 l5.43 1.27 -0.22 3.80 -0.22 3.87 -3.72 0.07 c-2.01 0.07 -6.33 -0.45 -9.45 -1.12z"/>
  <path d="M589.17 286.73 c-0.30 -0.22 -0.52 -2.08 -0.52 -4.02 0 -3.57 0 -3.57 2.83 -4.09 1.49 -0.22 4.84 -0.89 7.44 -1.49 5.73 -1.27 8.48 -1.34 9.67 -0.15 1.19 1.19 1.12 6.18 -0.07 7.14 -2.46 2.08 -17.86 4.17 -19.35 2.60z"/>
  <path d="M615.96 277.80 c-0.30 -0.22 -0.52 -1.86 -0.52 -3.65 0 -3.13 0.15 -3.27 6.03 -7.74 5.43 -4.09 6.40 -4.54 9.15 -4.32 l3.05 0.22 0.22 3.57 c0.22 3.35 0.07 3.65 -3.13 6.55 -1.79 1.64 -4.54 3.65 -5.95 4.47 -2.60 1.34 -7.89 1.93 -8.86 0.89z"/>
  <path d="M636.80 257.79 c-1.49 -1.56 -0.37 -6.55 2.90 -12.65 l3.42 -6.33 3.50 0.22 3.42 0.22 0 4.47 c0 3.94 -0.37 5.06 -2.98 9.30 -2.98 4.69 -3.13 4.84 -6.40 5.06 -1.86 0.15 -3.57 0 -3.87 -0.30z"/>
  <path d="M648.48 224.22 c0.22 -4.47 0.74 -9.23 1.04 -10.64 0.52 -2.46 0.74 -2.60 4.09 -2.83 3.20 -0.22 3.50 -0.07 3.94 1.79 0.60 2.31 -0.22 12.87 -1.27 16.89 -0.74 2.75 -0.74 2.75 -4.54 2.75 l-3.80 0 0.52 -7.96z"/>
  <path d="M649.38 201.53 c-1.49 -5.13 -3.50 -15.63 -3.27 -17.34 0.22 -2.08 0.45 -2.23 3.72 -2.46 3.20 -0.22 3.57 -0.07 4.54 1.86 1.56 3.05 2.75 9.30 2.75 14.36 l0 4.47 -3.72 0 c-2.38 0 -3.87 -0.37 -4.02 -0.89z"/>
  <path d="M521.90 186.27 c-1.71 -0.67 -1.12 -6.92 1.04 -11.24 l2.01 -3.94 3.72 0.22 c3.72 0.22 3.80 0.22 4.02 2.83 0.15 1.71 -0.60 4.39 -2.08 7.67 -2.23 4.91 -2.31 4.99 -5.06 4.91 -1.49 0 -3.20 -0.22 -3.65 -0.45z"/>
  <path d="M636.80 169.60 c-3.42 -4.84 -4.24 -6.55 -4.24 -8.93 l0 -2.90 3.94 0 c4.39 0 5.06 0.52 9.30 6.85 1.79 2.60 2.38 4.32 2.38 6.77 0 3.65 -0.67 4.24 -4.69 4.24 -2.16 0 -2.83 -0.67 -6.70 -6.03z"/>
  <path d="M533.28 164.76 c-0.22 -0.67 -0.45 -2.31 -0.45 -3.80 0 -2.23 0.74 -3.27 4.76 -7.37 4.61 -4.61 4.91 -4.76 8.56 -4.76 l3.80 0 0 3.57 c0 3.35 -0.22 3.72 -5.06 8.56 -4.54 4.54 -5.28 4.99 -8.11 4.99 -2.08 0 -3.20 -0.37 -3.50 -1.19z"/>
  <path d="M615.29 150.47 l-5.80 -3.50 0 -3.50 0 -3.57 3.72 0 c4.09 0 9.15 2.16 13.32 5.66 2.08 1.71 2.38 2.38 2.16 5.06 l-0.22 3.05 -3.72 0.15 c-3.27 0.15 -4.47 -0.30 -9.45 -3.35z"/>
  <path d="M555.68 147.57 c-0.30 -0.22 -0.52 -1.93 -0.52 -3.65 0 -2.98 0.22 -3.35 2.83 -4.61 4.84 -2.46 10.34 -3.94 13.69 -3.72 l3.20 0.22 0 3.65 0 3.72 -5.95 2.38 c-5.58 2.31 -12.06 3.27 -13.25 2.01z"/>
  <path d="M588.50 142.14 c-2.75 -0.37 -5.36 -0.82 -5.80 -1.12 -0.37 -0.22 -0.74 -1.93 -0.74 -3.72 0 -2.98 0.22 -3.35 1.93 -3.80 2.53 -0.67 14.36 0.15 16.97 1.19 1.86 0.67 2.01 1.04 1.79 4.24 l-0.22 3.57 -4.47 0.07 c-2.46 0.07 -6.70 -0.15 -9.45 -0.45z"/>
  <path d="M485.73 256.97 c-0.30 -0.22 -0.52 -1.56 -0.52 -2.98 0 -1.86 0.37 -2.68 1.71 -3.13 0.89 -0.37 8.19 -1.41 16.15 -2.31 7.96 -0.82 16.74 -1.86 19.50 -2.23 2.75 -0.45 9.60 -0.97 15.11 -1.27 l10.05 -0.45 0 2.60 0 2.60 -6.47 1.19 c-24.26 4.47 -53.88 7.59 -55.52 5.95z"/>
 </g>
 <g fill="#1a274e">
  <path d="M546.53 461.77 c-11.24 -2.46 -17.27 -9.15 -14.44 -15.93 0.89 -2.16 4.47 -5.06 8.41 -6.85 2.60 -1.19 2.53 -1.71 -0.60 -3.65 -7.81 -4.84 -5.88 -15.33 3.72 -20.24 l2.98 -1.56 -1.86 -1.19 c-6.47 -4.32 -9.23 -9.08 -9.15 -16.07 0.07 -9.08 5.73 -15.63 16.15 -18.60 5.88 -1.71 14.96 -1.19 20.39 1.12 l3.87 1.64 2.60 -2.31 c3.50 -3.05 6.03 -4.24 10.27 -4.84 l3.50 -0.52 0 5.66 c0 5.06 -0.15 5.66 -1.27 5.28 -3.35 -0.97 -9.75 -1.27 -10.20 -0.52 -0.30 0.45 0.37 2.08 1.49 3.72 1.34 2.01 2.01 4.32 2.31 7.44 0.82 8.86 -2.46 14.73 -10.42 18.68 -6.03 2.98 -11.16 3.72 -18.60 2.75 l-5.95 -0.74 -1.79 2.01 c-2.08 2.46 -2.16 4.24 -0.22 6.03 1.19 1.12 3.94 1.49 16 2.31 11.61 0.74 15.18 1.27 18.01 2.53 6.70 2.98 9.15 6.55 9.15 13.17 -0.07 9.97 -7.74 17.56 -20.91 20.69 -5.80 1.34 -17.27 1.34 -23.44 0z m25.75 -5.36 c4.47 -2.01 6.70 -4.61 7.22 -8.33 0.37 -2.60 0.15 -3.27 -1.79 -5.21 -2.53 -2.53 -3.72 -2.75 -19.50 -3.80 -7.44 -0.52 -11.01 -0.45 -11.68 0.07 -0.52 0.45 -1.49 2.23 -2.16 3.94 -2.31 6.03 1.04 12.06 7.89 14.29 4.69 1.49 15.70 0.97 20.02 -0.97z m-7.74 -45.47 c2.68 -2.16 4.17 -6.03 4.54 -12.06 0.97 -13.32 -4.84 -21.43 -12.43 -17.49 -3.57 1.86 -5.21 6.10 -5.21 13.77 0 7.96 0.97 11.53 4.09 14.66 2.83 2.83 6.40 3.27 9 1.12z"/>
  <path d="M312.11 436.54 c-2.98 -0.60 -7.89 -1.79 -10.94 -2.68 l-5.58 -1.64 -0.52 -8.33 c-0.67 -10.94 -0.37 -14.88 1.19 -15.18 0.97 -0.15 1.64 0.97 2.75 4.24 4.17 12.43 12.80 19.72 23.22 19.72 9.15 0 14.29 -4.76 14.21 -13.10 0 -7.22 -2.75 -9.82 -18.31 -17.41 -17.86 -8.71 -22.92 -14.44 -22.92 -26.05 0 -4.32 0.37 -6.18 2.01 -9.53 2.46 -5.06 7.44 -9.53 13.02 -11.76 6.03 -2.38 20.02 -2.31 29.10 0.22 l6.33 1.79 0.22 11.01 c0.07 6.33 -0.07 10.94 -0.52 10.94 -0.37 0 -2.23 -3.13 -4.09 -7 -5.13 -10.57 -10.49 -14.59 -19.50 -14.59 -12.50 0 -17.56 13.54 -8.04 21.43 1.64 1.34 8.26 5.06 14.81 8.26 12.87 6.40 17.12 9.45 20.32 14.81 1.86 3.20 2.01 4.17 2.01 10.94 0 6.92 -0.15 7.74 -2.31 11.53 -5.88 10.42 -20.54 15.40 -36.47 12.35z"/>
  <path d="M449.64 436.76 c-15.85 -3.05 -25.15 -17.34 -22.70 -34.53 2.01 -13.92 10.64 -23 23.81 -25.08 16.74 -2.60 30.21 6.18 33.71 21.80 1.27 5.80 0.60 15.63 -1.41 20.91 -4.84 12.50 -19.13 19.72 -33.41 16.89z m12.87 -6.10 c4.02 -4.02 5.21 -9.23 5.21 -22.85 0 -9.75 -0.30 -12.35 -1.64 -16.74 -2.16 -6.92 -5.58 -10.42 -10.12 -10.42 -1.79 0 -4.02 0.67 -5.13 1.41 -4.91 3.27 -7.81 14.96 -7 28.35 0.89 15.85 4.69 22.62 12.65 22.70 3.05 0 3.94 -0.37 6.03 -2.46z"/>
  <path d="M508.65 436.91 c-3.05 -0.74 -6.47 -2.60 -7.96 -4.32 -3.27 -3.57 -3.57 -5.88 -3.57 -26.94 0 -11.01 -0.22 -20.54 -0.45 -21.21 -0.30 -0.89 -1.49 -1.19 -4.17 -1.19 -3.50 0 -3.65 -0.07 -3.42 -1.93 0.15 -1.64 0.82 -2.16 3.35 -2.90 6.25 -1.86 12.58 -8.04 14.88 -14.66 1.12 -3.05 1.56 -3.57 3.35 -3.57 l2.01 0 0.22 9.15 0.22 9.08 7.14 -0.22 c3.94 -0.15 7.37 0 7.59 0.37 0.22 0.30 0.22 1.49 0 2.60 -0.37 2.01 -0.45 2.01 -7.59 2.23 l-7.14 0.22 -0.22 16.37 c-0.37 25.45 0.22 28.35 6.18 29.17 2.38 0.30 3.57 0 5.80 -1.56 3.35 -2.31 4.24 -2.38 4.24 -0.52 0 5.43 -13.17 11.68 -20.47 9.82z"/>
  <path d="M616.63 436.69 c-4.61 -0.67 -9.15 -3.72 -11.16 -7.67 -1.41 -2.75 -1.64 -4.61 -2.01 -22.33 -0.22 -10.64 -0.67 -19.94 -1.04 -20.69 -0.30 -0.74 -1.56 -1.86 -2.83 -2.53 l-2.31 -1.19 1.64 -1.34 c1.04 -0.82 3.57 -1.49 6.70 -1.79 2.75 -0.22 5.73 -0.74 6.70 -1.19 0.97 -0.37 2.83 -0.67 4.24 -0.67 l2.53 0 0.22 23.14 0.22 23.14 2.46 2.16 c2.01 1.79 3.05 2.16 6.18 2.16 3.27 0 4.02 -0.30 6.85 -2.90 l3.13 -2.98 0 -17.34 c0 -19.05 -0.22 -20.17 -4.24 -21.58 l-2.31 -0.82 1.56 -1.27 c1.04 -0.89 4.17 -1.64 9.23 -2.23 4.24 -0.45 8.56 -1.19 9.75 -1.49 l2.01 -0.67 0 14.73 c0 8.11 0.22 19.35 0.52 25.08 0.45 9.90 0.52 10.42 2.46 12.20 1.04 1.04 2.60 2.23 3.35 2.68 0.82 0.52 1.27 1.12 1.04 1.34 -0.67 0.67 -20.69 4.69 -21.13 4.24 -0.22 -0.15 -0.37 -1.34 -0.37 -2.60 0 -3.27 -0.74 -5.66 -1.79 -5.66 -0.52 0 -1.71 0.89 -2.75 1.93 -4.54 4.84 -11.76 7.22 -18.83 6.10z"/>
  <path d="M370.83 435.50 c-10.87 -0.15 -13.62 -0.37 -13.62 -1.19 0 -0.52 1.04 -1.41 2.23 -1.93 1.27 -0.52 2.60 -1.49 2.98 -2.16 0.82 -1.56 1.27 -67.57 0.52 -69.88 -0.37 -0.89 -1.86 -2.23 -3.35 -2.98 -4.54 -2.08 -3.57 -3.20 3.94 -4.69 3.72 -0.74 8.78 -1.79 11.31 -2.38 2.53 -0.60 4.84 -0.89 5.06 -0.67 0.22 0.30 0.22 8.71 -0.07 18.75 l-0.52 18.23 3.50 -3.20 c4.39 -4.02 9 -6.18 14.59 -6.62 5.21 -0.52 8.93 0.60 12.43 3.72 4.76 4.17 4.99 5.36 5.43 27.83 0.37 20.09 0.37 20.24 2.16 22.10 0.97 1.04 2.38 2.08 3.20 2.38 0.74 0.22 1.34 0.89 1.34 1.49 0 0.89 -2.38 1.04 -14.51 1.04 -8.93 0 -14.51 -0.30 -14.51 -0.74 0 -0.37 0.97 -1.19 2.23 -1.86 3.72 -1.93 4.02 -3.27 4.32 -18.83 0.37 -18.31 -0.07 -23.29 -2.60 -26.20 -1.64 -1.93 -2.31 -2.23 -5.73 -2.23 -4.76 0 -8.33 2.08 -10.27 5.95 -1.12 2.23 -1.34 4.76 -1.27 17.12 0 20.32 0.37 21.95 5.51 24.93 2.83 1.71 -0.89 2.23 -14.29 2.01z"/>
  <path d="M666.20 434.68 c-0.22 -0.60 0.07 -1.27 0.67 -1.49 0.52 -0.15 1.93 -1.27 3.05 -2.38 l2.08 -2.01 0 -19.80 c0 -10.79 -0.30 -20.54 -0.74 -21.58 -0.37 -1.04 -1.71 -2.38 -2.98 -3.05 -1.19 -0.60 -2.23 -1.64 -2.23 -2.23 0 -0.60 0.15 -1.12 0.30 -1.12 0.15 0 3.57 -0.67 7.52 -1.49 3.94 -0.82 8.71 -1.49 10.49 -1.49 l3.27 0 0 4.09 c0 2.23 0.15 4.09 0.30 4.09 0.15 0 1.49 -1.19 3.05 -2.60 4.91 -4.69 9.15 -6.33 16.07 -6.33 6.92 0 10.27 1.19 12.95 4.76 3.35 4.39 4.09 9.60 4.09 28.06 0 9.38 0.30 17.79 0.74 18.90 0.37 1.04 1.71 2.53 2.98 3.20 2.16 1.19 2.83 3.57 0.89 3.42 -0.45 -0.07 -6.77 -0.15 -13.92 -0.15 -13.77 -0.15 -15.40 -0.67 -10.79 -3.27 1.27 -0.67 2.60 -2.16 2.98 -3.20 0.45 -1.12 0.74 -9.53 0.74 -19.05 0 -18.38 -0.45 -20.91 -3.80 -23.29 -3.87 -2.68 -11.31 -0.74 -14.07 3.65 -1.41 2.23 -1.49 3.65 -1.49 20.24 0 16.82 0.07 18.01 1.49 19.80 0.82 1.04 2.23 2.16 3.05 2.38 0.82 0.30 1.41 1.04 1.27 1.71 -0.22 0.97 -2.08 1.12 -13.92 1.19 -11.24 0.07 -13.69 -0.15 -14.07 -0.97z"/>
  <path d="M454.33 277.28 c-9.75 -4.54 -11.46 -18.23 -3.13 -25.53 3.05 -2.68 6.40 -3.57 11.76 -3.05 12.50 1.19 16.67 18.75 6.40 26.94 -2.46 1.93 -3.57 2.31 -7.81 2.46 -3.13 0.15 -5.80 -0.15 -7.22 -0.82z"/>
  <path d="M425.23 266.42 c-2.90 -0.30 -6.10 -1.04 -7.07 -1.56 -0.97 -0.52 -3.42 -1.19 -5.51 -1.41 -3.20 -0.30 -3.72 -0.60 -3.94 -2.16 -0.22 -1.27 0.37 -2.31 1.79 -3.42 l2.08 -1.64 -2.01 -5.51 c-2.38 -6.55 -2.53 -9.75 -0.60 -11.61 0.82 -0.74 7.52 -3.50 14.88 -6.03 7.37 -2.60 14.36 -5.51 15.55 -6.33 1.19 -0.89 5.88 -5.13 10.49 -9.45 4.54 -4.32 10.27 -9 12.73 -10.49 9.30 -5.73 27.31 -10.20 47.33 -11.83 9.45 -0.74 9.60 -0.74 13.32 1.12 2.01 1.04 7.74 5.06 12.65 9 4.91 3.87 9.53 7.37 10.20 7.59 0.67 0.30 5.06 0.30 9.67 0 12.43 -0.74 35.42 -0.67 45.62 0.15 8.26 0.60 9.08 0.82 10.64 2.60 2.01 2.31 2.23 7.44 0.52 12.28 -1.56 4.39 -1.41 4.99 1.12 5.43 1.56 0.37 2.31 1.04 2.68 2.38 0.67 2.60 -0.74 3.94 -4.54 4.54 -2.31 0.30 -3.65 0.97 -4.47 2.31 -1.12 1.64 -5.13 3.94 -6.92 3.94 -0.37 0 -1.04 -1.79 -1.56 -3.87 -3.94 -17.56 -27.46 -20.17 -35.94 -4.09 -1.27 2.38 -1.64 4.39 -1.71 8.78 l0 5.66 -20.84 2.68 c-11.46 1.56 -27.01 3.65 -34.60 4.69 -22.03 2.98 -25.30 3.35 -26.05 2.90 -0.45 -0.30 -0.74 -1.19 -0.74 -2.16 0 -2.83 -4.39 -10.72 -7.29 -13.10 -1.49 -1.27 -4.54 -2.83 -6.77 -3.50 -12.13 -3.50 -23.44 4.54 -24.56 17.64 l-0.45 4.84 -5.21 0.07 c-2.83 0.07 -7.59 -0.15 -10.49 -0.45z m74.72 -11.98 c16.30 -1.79 44.73 -6.25 45.54 -7.14 0.45 -0.52 -14.51 0.37 -20.84 1.27 -2.68 0.37 -11.39 1.41 -19.35 2.23 -14.73 1.64 -18.31 2.38 -17.49 3.72 0.60 0.97 3.20 0.97 12.13 -0.07z m-45.99 -20.09 c11.68 -2.16 18.53 -1.71 24.26 1.56 l4.24 2.38 -1.41 -2.46 c-0.89 -1.49 -2.98 -3.27 -5.13 -4.39 -7.07 -3.57 -21.21 -2.16 -41.45 4.17 -4.61 1.49 -9 3.20 -9.75 3.94 -1.12 1.12 0.45 0.89 9.67 -1.19 6.03 -1.34 14.88 -3.20 19.57 -4.02z m82.23 -7.74 c4.91 -0.60 15.63 -1.93 23.74 -2.98 8.19 -1.04 21.88 -2.53 30.51 -3.27 14.21 -1.19 15.48 -1.41 13.47 -2.31 -2.83 -1.19 -21.73 -1.19 -32.15 0 -18.31 2.08 -45.99 7.44 -47.70 9.23 -1.19 1.12 -1.12 1.19 0.97 0.82 1.27 -0.22 6.25 -0.89 11.16 -1.49z m-58.05 -3.80 c5.28 -0.67 9.75 -1.27 9.82 -1.34 0.07 -0.07 -0.74 -3.50 -1.79 -7.74 -2.23 -9 -2.16 -9 -10.64 -4.61 -9.75 5.13 -14.44 10.05 -12.65 13.47 0.97 1.79 2.53 1.79 15.26 0.22z m40.48 -5.13 c10.79 -1.41 19.72 -2.60 19.94 -2.60 1.27 0 -7.14 -7.81 -14.21 -13.25 -2.60 -2.01 -6.55 -2.08 -17.19 -0.52 -14.36 2.16 -16.82 2.75 -17.34 3.94 -0.37 0.97 2.38 13.47 3.35 15.26 0.22 0.37 1.56 0.45 3.13 0.15 1.49 -0.22 11.53 -1.56 22.33 -2.98z"/>
  <path d="M359.22 260.69 c-4.32 -11.01 -7.22 -31.11 -5.88 -41.53 l0.52 -4.47 4.61 -0.22 4.61 -0.22 0.82 -2.90 c0.67 -2.46 1.12 -2.98 2.60 -2.98 1.64 0 1.86 0.30 1.86 2.90 0 5.06 3.13 4.76 4.02 -0.30 0.45 -2.16 0.82 -2.60 2.46 -2.60 1.86 0 1.93 0.07 1.49 3.72 l-0.45 3.72 2.90 0 c2.38 0 2.90 -0.30 3.13 -1.64 0.15 -1.27 0.82 -1.79 2.38 -1.93 1.93 -0.22 2.08 -0.07 1.64 1.49 -0.22 0.97 -0.67 5.06 -0.89 9.15 -0.60 9.38 0.97 18.75 4.61 28.13 1.49 3.80 2.83 7.74 3.05 8.78 0.37 1.79 0.15 2.01 -2.90 2.38 -1.71 0.22 -4.61 0.67 -6.33 0.97 l-3.05 0.45 -1.93 -3.80 c-1.41 -2.75 -2.38 -3.80 -3.50 -3.80 -1.41 0 -1.56 0.30 -1.12 2.98 0.45 2.83 0.37 2.98 -1.41 2.98 -1.04 0 -1.86 0.37 -1.86 0.74 0 0.45 -2.23 0.74 -5.13 0.74 l-5.13 0 -1.12 -2.75z m13.10 -17.86 c0.15 -0.37 -0.07 -3.94 -0.52 -8.04 -0.74 -6.33 -1.04 -7.44 -2.23 -7.67 -2.08 -0.45 -2.75 1.27 -2.23 6.18 0.67 7.14 1.64 10.05 3.27 10.05 0.74 0 1.56 -0.22 1.71 -0.52z"/>
  <path d="M613.95 261.06 c0 -2.01 0.67 -2.98 3.57 -5.28 10.79 -8.78 18.60 -23.96 20.09 -39.22 l0.52 -5.58 8.41 -0.07 c4.54 -0.07 8.33 0.15 8.33 0.52 0 0.37 0.97 0.67 2.23 0.67 1.19 0 3.35 0.60 4.84 1.27 2.31 1.12 2.75 1.12 3.35 0.22 0.45 -0.60 0.74 -1.71 0.74 -2.38 0 -0.89 0.60 -1.34 1.86 -1.34 1.64 0 1.86 0.30 1.86 2.83 0 11.39 -3.87 26.79 -9.60 38.55 l-4.39 8.93 -8.11 0 c-7 -0.07 -8.04 -0.22 -8.26 -1.34 -0.30 -1.41 -2.38 -1.86 -2.38 -0.60 0 0.45 -0.82 0.74 -1.79 0.74 -0.97 0 -1.93 0.37 -2.08 0.89 -0.15 0.45 -2.31 0.97 -4.91 1.19 -3.27 0.22 -4.61 0.60 -4.61 1.34 0 0.82 -1.19 1.04 -4.84 1.04 l-4.84 0 0 -2.38z m30.73 -10.05 c3.13 -5.06 3.94 -9.30 1.93 -9.75 -1.49 -0.30 -8.48 12.06 -7.81 13.77 0.82 2.08 2.98 0.60 5.88 -4.02z m9.38 -23.81 c1.12 -4.47 1.71 -12.43 0.89 -13.54 -0.37 -0.60 -1.19 -0.82 -1.79 -0.60 -1.12 0.45 -1.64 2.90 -2.46 11.53 -0.52 5.13 -0.45 5.36 1.04 5.36 1.19 0 1.79 -0.67 2.31 -2.75z"/>
  <path d="M574.88 260.84 c-5.51 -2.83 -9.15 -10.05 -8.19 -16.07 0.74 -4.47 4.17 -9.15 8.11 -11.09 5.06 -2.38 11.24 -1.93 15.11 1.27 3.87 3.13 5.51 6.18 5.95 11.24 0.45 5.21 -1.64 9.67 -5.95 13.10 -2.38 1.93 -3.57 2.31 -7.81 2.53 -3.50 0.15 -5.66 -0.15 -7.22 -0.97z"/>
 </g>
 <g fill="#151a3f">
  <path d="M393.08 434.46 c0.15 -0.45 0.89 -0.89 1.56 -1.04 0.67 -0.07 1.12 0.15 0.89 0.45 -0.22 0.37 1.19 0.82 3.13 0.97 3.20 0.22 3.13 0.30 -1.12 0.37 -3.35 0.07 -4.69 -0.07 -4.47 -0.74z"/>
  <path d="M436.47 323.65 c-9.53 -1.27 -19.13 -4.32 -28.28 -8.86 -21.66 -10.72 -37.66 -27.83 -47.48 -50.75 -3.05 -7 -4.32 -12.65 -2.31 -9.97 0.60 0.82 1.04 1.71 1.04 2.08 0 0.30 0.60 0.60 1.34 0.60 1.04 0 1.12 0.15 0.15 0.74 -0.89 0.60 -0.89 0.74 0.37 0.74 0.97 0 1.19 0.22 0.60 0.60 -0.60 0.37 -0.67 0.97 -0.22 1.64 0.52 0.82 0.74 0.82 0.74 0.15 0 -0.67 0.37 -0.74 1.41 -0.15 0.82 0.37 2.23 0.74 3.20 0.67 1.64 0 1.64 -0.07 0.22 -0.67 -1.19 -0.52 -0.82 -0.67 1.64 -0.67 3.05 -0.07 3.13 -0.15 3.35 -2.83 0.15 -2.31 0.52 -2.90 2.01 -3.05 0.97 -0.15 2.08 0.15 2.60 0.60 0.45 0.45 0.52 0.74 0.07 0.67 -1.56 -0.37 -3.35 1.04 -3.35 2.60 0.07 2.53 5.51 12.73 7 12.95 2.83 0.60 2.83 -1.12 0.15 -6.47 -3.13 -6.10 -3.42 -8.04 -0.82 -5.06 1.64 1.86 3.20 2.83 2.38 1.49 -0.37 -0.52 0.60 -0.67 6.40 -0.97 2.23 -0.07 2.31 -0.15 1.34 -3.57 -0.74 -2.60 0.22 -3.42 1.04 -0.82 0.30 0.82 2.46 4.47 4.91 8.04 7.89 11.91 19.65 21.06 32.52 25.45 6.33 2.08 8.41 2.46 16.97 2.75 8.19 0.30 10.72 0.07 16 -1.27 11.76 -2.90 25.15 -11.09 31.55 -19.27 2.01 -2.60 3.65 -3.87 5.21 -4.17 6.40 -1.19 31.93 -4.24 33.86 -4.02 l2.31 0.22 -3.42 7.07 c-11.39 23.29 -29.40 39.96 -52.99 48.82 -11.68 4.39 -29.25 6.40 -41.53 4.69z m16.37 -14.36 c0.82 -0.60 1.19 -1.41 0.89 -2.23 -0.37 -0.97 -1.71 -1.19 -7.81 -1.19 -5.36 0 -7.67 0.30 -8.26 1.04 -0.60 0.74 -0.60 1.19 0.07 1.79 2.16 1.71 12.95 2.16 15.11 0.60z m20.61 -3.87 c6.25 -2.23 8.86 -4.24 7.44 -5.66 -0.74 -0.74 -2.31 -0.45 -7.29 1.27 -8.04 2.83 -9.15 3.50 -7.81 5.13 1.27 1.56 1.27 1.56 7.67 -0.74z m-47.78 -2.08 c-1.64 -1.56 -10.49 -5.06 -12.95 -5.21 -5.51 -0.22 -1.49 3.72 6.77 6.62 4.39 1.56 5.21 1.64 6.18 0.67 0.97 -0.89 0.97 -1.19 0 -2.08z m73.60 -13.69 c3.94 -3.72 5.21 -5.36 4.84 -6.33 -0.22 -0.67 -1.04 -1.27 -1.71 -1.27 -1.86 0.07 -11.98 10.20 -11.53 11.53 0.82 2.16 3.13 1.04 8.41 -3.94z m-98.38 1.71 c0.60 -1.56 -9.75 -11.68 -11.31 -11.09 -2.16 0.82 -1.12 3.05 3.65 7.59 4.84 4.69 6.85 5.58 7.67 3.50z"/>
  <path d="M577.49 299.16 c-7.67 -0.74 -13.40 -2.01 -20.84 -4.61 -6.92 -2.38 -18.23 -8.33 -22.33 -11.76 l-2.60 -2.16 3.05 -5.80 c1.71 -3.20 3.65 -7.52 4.32 -9.67 1.41 -4.24 0.97 -4.09 11.83 -5.13 4.69 -0.45 5.28 -0.30 10.42 2.16 7.44 3.65 12.95 4.99 22.47 5.51 7 0.37 9 0.15 13.77 -1.19 5.88 -1.71 9.53 -3.42 14.66 -6.92 2.68 -1.79 6.62 -3.05 5.21 -1.56 -0.30 0.22 -0.07 0.97 0.45 1.56 0.74 0.97 0.67 1.12 -0.37 0.67 -0.74 -0.22 -1.34 -0.15 -1.34 0.22 0 0.45 1.27 0.74 2.83 0.74 l2.75 0 -1.86 -1.41 -1.86 -1.49 4.84 0.30 c5.66 0.30 8.86 -0.22 7.29 -1.19 -0.60 -0.45 0 -0.67 1.86 -0.67 1.49 0 2.75 -0.30 2.75 -0.74 0 -0.37 0.52 -0.74 1.12 -0.74 0.60 0 1.04 -0.22 1.04 -0.52 -0.37 -2.16 0.30 -2.53 1.27 -0.74 0.60 1.12 1.56 2.01 2.08 2.01 0.60 0 1.27 0.52 1.49 1.19 0.30 0.82 0.74 0.97 1.41 0.52 0.45 -0.37 3.42 -0.74 6.47 -0.82 3.42 -0.07 5.21 0.15 4.54 0.52 -0.82 0.52 -0.67 0.74 0.60 0.97 1.56 0.22 1.56 0.37 -1.49 4.69 -10.12 14.51 -23.07 24.86 -39 30.96 -10.94 4.24 -25.53 6.25 -36.84 5.13z m23.07 -15.33 c5.73 -1.27 7.59 -2.68 5.88 -4.39 -0.89 -0.89 -1.71 -0.89 -5.51 0 -2.46 0.52 -5.73 1.19 -7.22 1.41 -2.01 0.37 -2.83 0.89 -2.83 1.86 0 2.68 1.79 2.90 9.67 1.12z m22.03 -9.15 c3.65 -1.93 9.23 -7.14 9.23 -8.63 0 -2.53 -2.23 -1.79 -8.11 2.60 -5.58 4.24 -6.77 5.73 -5.51 6.92 0.74 0.82 1.49 0.67 4.39 -0.89z"/>
 </g>
 <g fill="#244970">
  <path d="M666.79 210.98 c0 -5.06 0.15 -5.58 1.49 -5.58 1.34 0 1.49 0.45 1.41 4.69 0 3.27 -0.22 4.17 -0.67 3.13 -0.60 -1.34 -0.67 -1.34 -0.74 0.37 -0.15 1.04 -0.15 2.08 -0.07 2.46 0 0.30 -0.22 0.52 -0.67 0.52 -0.45 0 -0.74 -2.38 -0.74 -5.58z"/>
  <path d="M518.40 179.42 c-0.30 -0.37 -2.16 -0.89 -4.17 -1.19 -2.60 -0.37 -3.72 -0.82 -3.72 -1.64 0 -2.31 7 -15.40 11.39 -21.28 11.83 -16.07 28.35 -27.24 47.40 -32 5.13 -1.27 8.56 -1.56 18.23 -1.56 10.57 0.07 12.73 0.30 19.35 2.08 21.13 5.66 39.52 20.09 50.75 39.74 2.75 4.84 2.98 5.66 2.01 6.62 -0.60 0.60 -2.23 1.04 -3.87 0.97 -7.44 -0.37 -8.33 -0.15 -8.33 2.08 0 5.36 0 5.36 -9.60 5.36 l-8.63 -0.07 -2.98 -4.17 c-11.46 -16 -32.89 -23.44 -52.47 -18.08 -8.78 2.38 -17.49 8.48 -25.75 18.08 -2.98 3.35 -3.20 3.50 -7.07 3.42 -7.44 -0.07 -10.72 -0.89 -10.72 -2.53 0 -0.89 -0.60 -1.56 -1.49 -1.71 -1.12 -0.15 -1.93 0.67 -3.35 3.20 -1.56 2.90 -2.16 3.35 -4.24 3.35 -1.27 0 -2.53 -0.30 -2.75 -0.67z m126.36 -6.47 c0.67 -0.22 1.19 -0.97 1.19 -1.56 0 -1.12 -3.65 -6.92 -6.18 -9.67 -1.49 -1.71 -4.99 -2.38 -4.99 -1.04 0 0.60 8.26 12.73 8.71 12.73 0.07 0 0.60 -0.22 1.27 -0.45z m-102.10 -14.21 c5.06 -4.99 6.33 -7.67 3.65 -7.67 -1.56 0 -7.44 4.99 -9.75 8.19 -1.49 2.08 -1.34 4.47 0.22 4.47 0.45 0 3.13 -2.23 5.88 -4.99z m83.57 -7.74 c0.82 -1.19 -2.23 -4.02 -7.07 -6.55 -4.91 -2.60 -7.44 -2.98 -7.44 -0.97 0 0.82 2.16 2.53 5.80 4.76 5.88 3.50 7.89 4.17 8.71 2.75z m-59.53 -7.67 c4.54 -1.86 5.95 -2.75 5.95 -3.87 0 -1.86 -2.98 -1.79 -8.63 0.37 -5.36 2.01 -7 3.27 -6.40 4.84 0.67 1.71 2.31 1.49 9.08 -1.34z m33.64 -3.87 c0.67 -1.86 -0.74 -2.60 -6.70 -3.42 -6.03 -0.89 -9.45 -0.45 -9.45 1.27 0 1.49 1.04 1.93 6.55 2.60 7.96 0.89 9.08 0.82 9.60 -0.45z"/>
  <path d="M369.12 172.80 c0 -2.98 10.20 -15.63 18.31 -22.55 10.49 -9 22.62 -15.33 36.69 -19.13 6.47 -1.71 8.48 -1.93 21.28 -1.93 13.17 -0.07 14.66 0.07 21.95 2.01 8.26 2.23 20.32 7.52 27.01 11.98 5.66 3.80 15.55 12.50 16.82 14.81 0.97 1.79 0.82 2.31 -1.49 6.77 l-2.46 4.76 -7.52 0.45 c-4.09 0.30 -11.31 0.37 -16 0.15 -7.96 -0.22 -8.93 -0.45 -14.14 -2.90 -18.16 -8.56 -38.47 -7.14 -55.52 4.02 -4.47 2.90 -5.06 3.05 -9.15 2.75 -2.83 -0.22 -4.84 -0.74 -5.66 -1.64 -0.82 -0.82 -1.93 -1.12 -2.90 -0.89 -4.24 1.19 -7.29 1.34 -9.45 0.45 -1.34 -0.60 -2.53 -0.67 -2.75 -0.30 -0.97 1.34 -5.88 2.53 -10.42 2.53 -3.94 0 -4.61 -0.22 -4.61 -1.34z m35.72 -12.87 c5.80 -4.32 6.85 -5.95 4.17 -6.47 -1.49 -0.30 -7.44 3.42 -10.42 6.47 -2.01 2.08 -2.31 4.54 -0.52 4.54 0.45 0 3.50 -2.01 6.77 -4.54z m87.07 1.27 c0 -2.16 -10.12 -9.38 -13.17 -9.38 -3.50 0 -1.71 2.53 4.76 6.77 6.03 3.94 8.41 4.69 8.41 2.60z m-61.17 -12.43 c5.51 -1.27 6.85 -1.86 6.85 -2.98 0 -2.16 -1.04 -2.23 -7.81 -0.97 -7.07 1.41 -9 2.46 -8.33 4.32 0.60 1.56 1.04 1.49 9.30 -0.37z m34.98 -1.19 c0.22 -1.41 -0.37 -1.71 -4.99 -2.75 -6.03 -1.41 -10.20 -1.56 -10.94 -0.37 -0.89 1.41 1.12 2.53 7 3.72 7.29 1.56 8.63 1.49 8.93 -0.60z"/>
 </g>
 <g fill="#1e385e">
  <path d="M380.28 219.91 c-0.74 -1.41 -1.19 -1.64 -2.01 -1.04 -0.67 0.60 -0.97 0.60 -0.97 0.07 0 -0.52 -0.52 -0.67 -1.27 -0.37 -0.82 0.30 -0.89 0.60 -0.37 0.82 1.86 0.60 0.74 1.41 -1.86 1.34 -1.79 -0.07 -2.75 -0.37 -2.68 -0.97 0.15 -0.52 -0.60 -1.12 -1.64 -1.41 -1.04 -0.22 -1.86 -0.89 -1.86 -1.49 0 -1.19 1.19 -1.41 1.86 -0.30 0.30 0.52 0.97 0.52 1.86 0 1.71 -0.89 3.13 -5.36 1.93 -6.10 -0.52 -0.37 -0.37 -2.23 0.52 -5.80 1.34 -5.51 1.19 -6.70 -0.60 -6.70 -1.41 0 -2.23 1.64 -3.72 7.44 -0.67 2.68 -1.56 5.06 -1.93 5.28 -0.37 0.22 -0.82 1.12 -1.04 2.01 -0.15 0.89 -0.52 2.01 -0.82 2.53 -0.30 0.52 -0.22 0.60 0.30 0.30 1.19 -0.67 1.12 0.52 0 1.64 -0.97 0.97 -2.38 1.27 -1.86 0.37 0.22 -0.37 -0.45 -0.67 -1.41 -0.67 -0.97 -0.07 -1.79 0.07 -1.79 0.37 0 0.82 -3.27 0.60 -3.87 -0.30 -0.37 -0.45 -0.60 -0.45 -0.60 0.07 0 0.52 -0.60 1.04 -1.34 1.19 -1.79 0.52 -1.86 -1.19 -0.45 -9.30 1.34 -7.96 5.21 -20.09 8.48 -26.64 4.17 -8.26 7.52 -13.32 8.78 -13.32 1.12 0 1.12 0.15 0.15 0.74 -0.89 0.60 -0.89 0.74 0.37 0.82 l1.49 0 -1.49 0.67 c-1.34 0.60 -1.27 0.67 0.60 0.67 1.34 0.07 1.93 -0.22 1.56 -0.74 -0.37 -0.60 -0.15 -0.67 0.74 -0.15 1.34 0.74 6.40 -0.37 6.40 -1.41 0 -0.89 6.55 -0.67 6.85 0.22 0.22 0.60 1.12 0.60 3.42 0 3.94 -1.12 9.82 -0.89 9.82 0.37 0 1.71 6.33 2.46 9 0.97 3.80 -2.01 2.53 0.15 -2.46 4.24 -3.05 2.53 -7.29 6.85 -9.45 9.67 -4.91 6.47 -10.12 16.97 -11.83 23.74 -0.67 2.90 -1.71 5.51 -2.16 5.80 -0.52 0.30 -0.97 1.19 -0.97 2.01 0 0.74 -0.52 1.93 -1.19 2.53 -0.60 0.67 -0.89 1.49 -0.67 1.93 0.22 0.37 0.15 0.74 -0.22 0.74 -0.37 0 -1.12 -0.82 -1.64 -1.86z m1.93 -35.13 c0.67 -1.19 2.38 -3.80 3.72 -5.88 2.68 -3.94 3.13 -5.80 1.64 -6.70 -1.86 -1.19 -10.20 11.01 -9.23 13.47 0.67 1.79 2.53 1.27 3.87 -0.89z"/>
  <path d="M662.70 216.93 c-1.19 -0.52 -2.60 -0.82 -3.13 -0.60 -0.52 0.22 -1.19 -0.15 -1.41 -0.82 -0.22 -0.67 -1.12 -1.19 -1.86 -1.19 -0.74 0 -1.41 -0.30 -1.41 -0.74 0 -1.19 -3.42 -0.89 -4.47 0.37 -1.04 1.19 -3.42 1.49 -4.02 0.45 -0.60 -0.97 -4.17 -1.49 -4.61 -0.67 -0.30 0.37 -1.12 0.60 -1.86 0.37 -0.74 -0.22 -1.41 -0.07 -1.56 0.30 -0.15 0.37 -0.30 -2.46 -0.37 -6.25 -0.30 -10.72 -3.94 -22.62 -9.45 -30.73 -1.41 -2.08 -1.71 -3.05 -1.12 -3.65 0.60 -0.52 0.97 -0.45 1.19 0.22 0.22 0.45 0.82 0.89 1.41 0.89 0.67 0 0.89 0.30 0.67 0.74 -0.22 0.37 -0.15 0.74 0.30 0.74 0.37 0 0.97 -0.30 1.19 -0.74 0.22 -0.37 1.04 -0.74 1.71 -0.67 1.04 0 0.97 0.15 -0.22 0.67 -0.97 0.45 0.52 0.67 4.69 0.60 5.06 0 5.95 -0.22 5.28 -1.04 -0.67 -0.82 -0.60 -1.04 0.37 -1.04 1.41 0 2.46 -3.50 1.27 -4.69 -1.12 -1.12 -1.04 -2.98 0.15 -2.23 0.45 0.30 1.49 0.45 2.31 0.30 0.74 -0.07 1.71 0.22 2.01 0.82 0.52 0.74 0.67 0.74 0.67 0 0 -0.89 1.86 -0.82 5.21 0.22 0.82 0.30 1.49 0.15 1.49 -0.30 0 -0.45 0.67 -0.82 1.41 -0.82 2.68 0 8.19 15.85 10.20 29.40 1.12 7.44 0.89 11.91 -0.89 19.20 -0.07 0.30 -0.15 0.89 -0.22 1.27 -0.07 0.97 -2.16 0.82 -4.91 -0.37z m-7.81 -18.98 c0 -3.05 -1.49 -9.67 -2.68 -12.06 -1.04 -2.01 -2.83 -2.75 -3.57 -1.41 -0.30 0.45 1.56 9.90 2.98 14.81 0.15 0.45 0.97 0.89 1.79 0.89 1.19 0 1.49 -0.52 1.49 -2.23z"/>
  <path d="M532.09 194.90 c-6.25 -4.76 -8.48 -5.36 -18.16 -4.99 -4.32 0.15 -7.89 0.07 -7.89 -0.15 0 -0.37 3.80 -11.91 4.84 -14.81 0.22 -0.67 0.67 -0.74 1.34 -0.30 0.45 0.37 1.64 0.60 2.60 0.52 0.89 0 1.64 0.22 1.64 0.60 0 0.37 0.30 0.45 0.74 0.22 0.37 -0.22 1.79 0.15 2.98 0.89 2.01 1.12 2.38 1.19 2.98 0.22 1.19 -1.93 1.64 -0.22 0.67 2.98 -0.82 2.60 -0.74 3.20 0.15 3.80 0.60 0.37 1.27 0.67 1.56 0.67 0.74 0 5.21 -9.75 4.76 -10.27 -0.37 -0.30 1.41 -2.38 2.01 -2.38 0.22 0 0.30 0.52 0.22 1.19 0 0.67 0.60 1.34 1.41 1.49 5.80 1.12 12.65 0.74 10.64 -0.52 -0.67 -0.45 -0.30 -0.60 1.12 -0.52 1.12 0.07 2.01 0.45 2.01 0.74 0 0.37 -1.19 2.38 -2.60 4.54 -2.60 3.94 -7.07 15.03 -7.07 17.64 0 2.46 -0.97 2.16 -5.95 -1.56z"/>
  <path d="M491.98 185.38 c-4.91 -6.33 -10.49 -11.31 -16.89 -15.18 -4.32 -2.60 -5.58 -4.84 -1.93 -3.35 1.27 0.45 7.29 0.74 16.15 0.67 17.12 -0.15 16.89 -0.15 18.16 -1.34 1.71 -1.71 1.71 -0.60 0 3.20 -0.89 2.01 -2.98 7.67 -4.69 12.58 -3.94 11.39 -4.39 11.53 -10.79 3.42z"/>
 </g>
</svg>